<svg width="100" height="100" viewBox="0 0 100 100" fill="none" xmlns="http://www.w3.org/2000/svg">
<mask id="mask0" mask-type="alpha" maskUnits="userSpaceOnUse" x="0" y="0" width="100" height="100">
<circle cx="50" cy="50" r="50" fill="white"/>
</mask>
<g mask="url(#mask0)">
<circle cx="50" cy="50" r="50" fill="#EDEDED"/>
<mask id="mask1" mask-type="alpha" maskUnits="userSpaceOnUse" x="22" y="3" width="82" height="94">
<rect x="22.2222" y="3.33333" width="81.5796" height="93.3333" fill="#FFFFFF"/>
</mask>
<g mask="url(#mask1)">
<path fill-rule="evenodd" clip-rule="evenodd" d="M107.361 45.7259C106.337 45.0431 99.4791 45.7409 98.3245 45.7259C82.1742 45.5401 85.6181 37.6382 69.8695 39.0539C59.4424 39.9927 59.4424 46.1375 54.0155 47.0412C54.0506 40.5048 54.4823 32.4372 55.4663 23.7019C55.9533 19.3593 54.5727 18.3754 56.8017 15.0469C56.9523 14.821 57.0829 14.6001 57.1933 14.3792C57.4544 14.088 57.6752 13.7567 57.8309 13.3752C58.6442 11.4524 57.6552 9.18823 55.632 8.30968C54.7032 7.90806 53.7243 7.87292 52.8507 8.12895C52.4893 7.76749 52.0525 7.46628 51.5555 7.24538C50.5213 6.79858 49.4119 6.8036 48.463 7.17008C48.2472 7.02449 48.0162 6.89396 47.7702 6.78854C46.1888 6.10076 44.4317 6.47728 43.3524 7.5968C43.0863 7.39097 42.7951 7.21024 42.4688 7.06967C41.0681 6.46724 36.7306 8.57074 33.9494 10.5437C31.9212 11.5678 30.2243 12.8781 29.1249 14.4846C24.4912 21.262 22.5985 54.0394 23.8586 67.9255C24.2452 72.1677 30.9473 81.2745 37.1774 81.9673C37.3732 81.9874 37.564 82.0024 37.7548 82.0175C49.7281 84.0507 83.9213 83.5487 102.055 83.9252C111.478 84.121 116.719 51.9711 107.361 45.7259Z" fill="#B37F3E"/>
<path fill-rule="evenodd" clip-rule="evenodd" d="M25.47 71.6054C24.3003 72.7249 24.8325 78.5133 25.4198 77.7201C26.0022 76.9269 27.0263 75.3455 26.5695 76.1187C25.6558 77.6549 27.0062 82.0024 27.2573 81.0435C27.5886 79.7835 28.0304 79.0204 28.4872 80.3959C29.0194 82.0024 31.0877 83.0215 30.0736 81.892C29.7774 81.5657 31.8709 80.4963 33.2213 80.5064C34.5768 80.5164 26.3837 70.7319 25.47 71.6054Z" fill="#B37F3E"/>
<path opacity="0.892" fill-rule="evenodd" clip-rule="evenodd" d="M64.6937 27.4771L65.3664 27.211L68.4288 35.3238L67.7511 35.5949L64.6937 27.4771Z" fill="#996D35"/>
<path opacity="0.892" fill-rule="evenodd" clip-rule="evenodd" d="M74.5836 23.7119L75.3065 23.6567L76.1048 35.625L75.3768 35.6803L74.5836 23.7119Z" fill="#996D35"/>
<path opacity="0.892" fill-rule="evenodd" clip-rule="evenodd" d="M86.0951 26.8948L86.7879 27.1508L84.1724 35.3338L83.4745 35.0778L86.0951 26.8948Z" fill="#996D35"/>
<path fill-rule="evenodd" clip-rule="evenodd" d="M90.4728 50.0584C90.4728 50.0584 84.1674 55.1339 79.0065 55.2895C73.8507 55.4401 71.3104 55.9271 71.3104 55.9271C71.3104 55.9271 76.3307 57.7344 79.6692 56.9462C83.0027 56.153 86.8482 54.7925 90.4728 50.0584Z" fill="#996D35"/>
<path fill-rule="evenodd" clip-rule="evenodd" d="M45.9529 15.7297C40.4607 15.8301 38.0711 18.9778 38.4225 22.5372C38.8442 26.7994 40.7921 30.5295 45.1346 30.414C49.5073 30.2935 53.3729 26.3777 53.2424 21.9398C53.0767 16.5329 50.4712 15.6493 45.9529 15.7297Z" fill="#382D23"/>
<path fill-rule="evenodd" clip-rule="evenodd" d="M37.3279 11.3319C37.4735 14.1031 38.2366 14.575 39.5921 14.3742C40.9475 14.1734 41.4445 14.0077 41.4546 11.3821C41.4646 9.26856 40.6664 7.4964 39.321 7.69721C37.9755 7.89301 37.1823 8.57576 37.3279 11.3319Z" fill="#382D23"/>
<path fill-rule="evenodd" clip-rule="evenodd" d="M41.6058 11.1562C41.9572 13.2848 42.5847 14.5298 44.0707 13.7718C45.5417 13.0237 46.1592 11.4323 45.8278 9.58985C45.4764 7.62692 44.7685 6.83372 43.2625 7.46125C42.2584 7.88296 41.1288 8.2645 41.6058 11.1562Z" fill="#382D23"/>
<path fill-rule="evenodd" clip-rule="evenodd" d="M45.6518 11.608C46.199 13.6713 46.9571 13.5308 48.4882 13.4756C50.0194 13.4203 50.2403 11.101 49.8136 9.32378C49.3668 7.46628 48.4782 6.41202 47.0474 7.1249C45.6166 7.8428 44.9339 8.9071 45.6518 11.608Z" fill="#382D23"/>
<path fill-rule="evenodd" clip-rule="evenodd" d="M49.653 11.116C50.401 12.9635 51.0537 13.3551 52.4041 12.9183C53.8449 12.4564 54.1211 10.7445 53.7044 9.02257C53.2676 7.22531 52.2786 6.61284 50.898 7.30564C49.5074 8.00848 48.669 8.69123 49.653 11.116Z" fill="#382D23"/>
<path fill-rule="evenodd" clip-rule="evenodd" d="M52.9009 11.2867C51.9923 13.4906 52.5445 14.0981 53.7343 14.9766C54.9291 15.8552 56.0989 15.4234 56.6661 13.9676C57.2535 12.4414 57.3991 10.5839 56.1993 9.75052C55.145 9.0276 53.8046 9.09788 52.9009 11.2867Z" fill="#382D23"/>
<path fill-rule="evenodd" clip-rule="evenodd" d="M27.9152 17.8081C27.2676 18.0792 25.5155 23.727 25.9121 23.3806C26.3087 23.0342 27.0769 22.246 26.7104 22.6526C25.9874 23.4709 24.9031 28.3356 25.2746 27.6127C25.7666 26.6689 26.1481 26.0664 25.7666 27.7131C25.3499 29.5154 26.0176 32.0556 26.2686 31.1419C26.3991 30.675 26.5748 30.1178 26.9011 31.0114C27.2275 31.9201 28.4223 17.5972 27.9152 17.8081Z" fill="#B37F3E"/>
<path fill-rule="evenodd" clip-rule="evenodd" d="M57.1431 11.1361C58.1121 12.7777 57.5448 15.1222 57.1532 15.1724C56.7616 15.2226 57.4393 13.1743 56.2345 12.597C54.9945 12.0096 54.9543 10.7345 55.5116 10.2525C55.9333 9.89106 56.5005 9.8007 57.1431 11.1361Z" fill="#1A1A1A"/>
<path fill-rule="evenodd" clip-rule="evenodd" d="M53.1168 7.87292C54.2564 8.69123 54.8589 10.1772 54.5024 11.4423C54.146 12.7075 54.0054 9.35893 52.7604 9.68524C51.4802 10.0166 51.0686 9.01755 51.3949 8.21932C51.6459 7.61187 51.9822 7.05462 53.1168 7.87292Z" fill="#1A1A1A"/>
<path fill-rule="evenodd" clip-rule="evenodd" d="M48.8097 7.41106C49.2314 7.5466 50.2756 7.83276 50.381 10.0266C50.4513 11.4323 49.6882 8.97739 48.7796 9.42921C47.5496 10.0367 47.0225 9.2535 47.2032 8.35989C47.3387 7.67713 47.7102 7.05964 48.8097 7.41106Z" fill="#1A1A1A"/>
<path fill-rule="evenodd" clip-rule="evenodd" d="M44.2359 7.10481C45.5662 6.88894 46.3444 9.77058 45.8624 10.2927C45.3805 10.8148 45.2249 8.96734 44.5923 9.31373C43.9146 9.68524 42.9155 9.83082 42.8151 8.91713C42.7348 8.22433 43.1414 7.47129 44.2359 7.10481Z" fill="#1A1A1A"/>
<path fill-rule="evenodd" clip-rule="evenodd" d="M40.8121 7.71728C42.2931 8.02352 42.9206 10.2676 42.6495 10.6692C42.3734 11.0708 41.9618 8.93219 40.782 9.64005C39.5671 10.368 38.9596 9.46936 39.1655 8.59081C39.3211 7.93315 39.7127 7.33574 40.8121 7.71728Z" fill="#1A1A1A"/>
</g>
</g>
</svg>
